<?xml version="1.0" encoding="utf-8"?>
<!-- Generator: Adobe Illustrator 27.6.1, SVG Export Plug-In . SVG Version: 6.00 Build 0)  -->
<svg version="1.1" id="Layer_1" xmlns="http://www.w3.org/2000/svg" xmlns:xlink="http://www.w3.org/1999/xlink" x="0px" y="0px"
	 width="1024px" height="1024px" viewBox="0 0 1024 1024" style="enable-background:new 0 0 1024 1024;" xml:space="preserve">
<style type="text/css">
	.st0{fill:#001E61;}
</style>
<path class="st0" d="M511.981,207.647c-147.89,0-304.349,156.421-304.349,304.349s156.459,304.349,304.349,304.349
	c147.928,0,304.387-156.421,304.387-304.349S659.909,207.647,511.981,207.647z M511.981,755.535
	c-116.07,0-243.502-127.469-243.502-243.539s127.432-243.539,243.502-243.539s243.539,127.469,243.539,243.539
	S628.051,755.535,511.981,755.535z M512.17,121.623c-83.57-2.001-177.068,40.615-255.958,117.467
	c-83.042,80.89-134.603,185.485-134.603,272.906c0,87.42,51.561,192.016,134.603,272.906
	c76.965,74.964,167.632,117.542,249.843,117.542c2.038,0,4.077,0,6.115-0.076c71.076-1.85,144.795-32.802,208.775-80.551
	c-3.511-3.511-6.643-7.361-9.361-11.475c-64.508,47.9-135.925,76.21-199.792,77.871c-1.925,0.038-3.85,0.076-5.775,0.076
	c-78.512,0-165.593-41.144-239.915-113.541c-80.362-78.324-130.3-178.993-130.3-262.752s49.938-184.429,130.3-262.752
	c74.323-72.398,161.403-113.541,239.915-113.541c1.925,0,3.888,0.038,5.775,0.076c82.136,2.151,176.766,48.353,253.127,123.619
	c78.361,77.191,123.279,169.254,123.279,252.598c0,62.772-25.479,130.527-71.567,193.11c4.001,2.604,7.738,5.624,11.135,8.984
	c45.824-62.734,74.624-134.037,74.624-202.094C902.391,330.776,698.146,126.455,512.17,121.623z M815.99,768.407
	c0,22.723-18.42,41.144-41.144,41.144c-10.078,0-19.288-3.624-26.46-9.663c-3.812-3.171-7.021-7.059-9.474-11.399
	c-3.322-5.926-5.209-12.796-5.209-20.081c0-22.723,18.42-41.144,41.144-41.144c7.285,0,14.079,1.887,20.005,5.209
	c4.304,2.378,8.116,5.511,11.248,9.21C812.291,748.854,815.99,758.215,815.99,768.407z M559.333,423.597
	c-21.828-8.372-40.289-11.396-54.474-11.396c-8.908,0-15.931,1.736-21.047,5.207c-5.136,3.461-7.685,8.507-7.685,15.108
	c0,9.24,4.956,16.422,14.867,21.539c9.892,5.126,25.582,10.654,47.05,16.593c24.418,6.932,44.562,13.955,60.413,21.047
	c15.851,7.103,29.635,17.917,41.352,32.444c11.717,14.536,17.596,33.678,17.596,57.453c0,24.107-6.36,44.492-19.081,61.165
	c-12.701,16.673-29.875,29.143-51.504,37.389c-21.629,8.256-45.806,12.38-72.552,12.38c-29.715,0-59.51-5.036-89.406-15.098
	c-29.875-10.072-55.718-23.856-77.508-41.362c0,0,26.114-72.06,102.768-39.867c25.188,10.578,46.97,15.6,65.128,15.6
	c11.236,0,19.984-2.137,26.264-6.441c6.26-4.284,9.41-10.393,9.41-18.318c0-9.571-5.136-16.914-15.369-22.04
	c-10.233-5.116-26.083-10.483-47.532-16.101c-24.117-6.26-44.081-12.791-59.931-19.562c-15.851-6.762-29.554-17.245-41.111-31.45
	c-11.557-14.185-17.335-32.845-17.335-55.959c0-22.452,5.939-42.014,17.837-58.697c11.878-16.663,28.631-29.464,50.261-38.383
	c21.629-8.908,46.809-13.373,75.541-13.373c26.063,0,51.986,3.722,77.748,11.146c25.762,7.434,48.214,17.255,67.355,29.474
	C658.389,372.092,644.716,456.347,559.333,423.597z"/>
</svg>
